<svg viewBox="0 0 96 96" xmlns="http://www.w3.org/2000/svg" xmlns:xlink="http://www.w3.org/1999/xlink" id="Icons_Dancing" overflow="hidden"><g id="B"><circle cx="38.83" cy="13" r="8" id="_16x16_circle_head" stroke="none" stroke-width="1" stroke-linecap="butt" fill="#262626" fill-opacity="1"/><path d="M74.28 25.15C73.0931 23.2868 70.6205 22.7385 68.7573 23.9253 68.7549 23.9269 68.7524 23.9284 68.75 23.93L60 29.52 48.91 23.52C47.9638 23.0047 46.8497 22.893 45.82 23.21L32.82 27.21C31.8666 27.5028 31.0571 28.1412 30.55 29L24.55 39.29 14.75 36.74C12.5917 36.269 10.4601 37.6368 9.98913 39.7952 9.54324 41.8384 10.7465 43.8802 12.75 44.48L25.48 47.79C25.8061 47.8772 26.1424 47.9209 26.48 47.92 27.904 47.915 29.218 47.1533 29.93 45.92L34.52 38 35.15 49.44 27.15 69.15C26.782 70.0886 26.782 71.1314 27.15 72.07L33.32 88.4C33.8954 89.9408 35.3554 90.9724 37 91 37.4821 91.0022 37.9604 90.914 38.41 90.74 40.4743 89.96 41.5169 87.6555 40.74 85.59L35.13 70.72 41.62 54.77 42.85 69.83C42.9082 70.5504 43.1605 71.2415 43.58 71.83L53.58 85.83C54.8668 87.6277 57.3673 88.0418 59.165 86.755 60.9627 85.4682 61.3768 82.9677 60.09 81.17L50.73 68.07 49.07 47.71 48.23 32.22 58.23 37.68C59.5107 38.3791 61.0704 38.3255 62.3 37.54L73.04 30.67C74.9066 29.4885 75.462 27.0175 74.2805 25.1508 74.2804 25.1506 74.2802 25.1503 74.28 25.15Z" stroke="none" stroke-width="1" stroke-linecap="butt" fill="#262626" fill-opacity="1"/><path d="M81.58 39 64.9 46.1 67.38 60.18C66.3669 60.1473 65.3672 60.4189 64.51 60.96 62.51 62.12 61.51 64.13 62.29 65.45 63.07 66.77 65.29 66.91 67.29 65.78 69.1 64.78 70.08 62.99 69.68 61.7L67.27 48 80.17 42.47 82.29 54.47C81.2644 54.4494 80.2544 54.7236 79.38 55.26 77.38 56.42 76.38 58.42 77.16 59.74 77.94 61.06 80.16 61.21 82.16 60.08 83.82 59.08 84.77 57.59 84.64 56.32L84.64 56.32 81.58 39Z" stroke="none" stroke-width="1" stroke-linecap="butt" fill="#262626" fill-opacity="1"/></g></svg>