<svg viewBox="0 0 96 96" xmlns="http://www.w3.org/2000/svg" xmlns:xlink="http://www.w3.org/1999/xlink" id="Icons_Swim" overflow="hidden"><circle cx="71.5" cy="45.5" r="9" stroke="none" stroke-width="1" stroke-linecap="butt" fill="#262626" fill-opacity="1"/><path d="M28 61.5 28 61.5C29.3 61.4 30.6 61.1 31.9 60.6 33.9 59.8 35.9 59.4 38 59.3 40.1 59.4 42.2 59.8 44.1 60.6 45.3 61.1 46.6 61.4 48 61.5 49.3 61.4 50.6 61.1 51.9 60.6 53.9 59.8 55.9 59.4 58 59.3 60.1 59.4 62.2 59.8 64.1 60.6L64.8 60.8C64.8 60.3 64.6 59.9 64.4 59.5L62.4 55.8 62.4 55.7 52.3 36.3 69.2 31.9C71.9 31.2 73.5 28.5 72.8 25.8 72.1 23.1 69.4 21.5 66.7 22.2L43.7 28.2C42.2 28.6 41 29.6 40.4 31 39.8 32.4 39.8 34 40.5 35.3L46.6 47.1 24.3 60.3C24.2 60.4 24.1 60.5 23.9 60.6L24.1 60.7C25.4 61.1 26.7 61.4 28 61.5Z" stroke="none" stroke-width="1" stroke-linecap="butt" fill="#262626" fill-opacity="1"/><path d="M84 67.1C82.1 66.3 80.1 65.9 78 65.8L78 65.8C75.9 65.9 73.9 66.3 72 67.1 70.7 67.6 69.4 67.9 68 68L68 68C66.6 67.9 65.3 67.6 64 67.1 62.1 66.3 60.1 65.9 58 65.8L58 65.8C55.9 65.9 53.9 66.3 52 67.1 50.7 67.6 49.4 67.9 48 68 46.6 67.9 45.3 67.6 44 67.1 42.1 66.3 40.1 65.9 38 65.8L38 65.8C35.9 65.9 33.9 66.3 32 67.1 30.7 67.6 29.4 67.9 28 68 26.6 67.9 25.3 67.6 24 67.1 22.1 66.3 20.1 65.9 18 65.8L18 65.8C15.9 65.9 13.9 66.3 12 67.1 10.7 67.6 9.4 67.9 8 68L8 74C10.1 73.9 12.1 73.5 14 72.7 15.3 72.2 16.6 71.8 18 71.8 19.4 71.9 20.7 72.2 22 72.7 23.9 73.5 25.9 73.9 28 74L28 74C30.1 73.9 32.1 73.5 34 72.7 35.3 72.2 36.6 71.8 38 71.8 39.4 71.9 40.7 72.2 42 72.7 43.9 73.5 45.9 73.9 48 74 50.1 73.9 52.1 73.5 54 72.7 55.3 72.2 56.6 71.8 58 71.8 59.4 71.9 60.7 72.2 62 72.7 63.9 73.5 65.9 73.9 68 74L68 74C70.1 73.9 72.1 73.5 74 72.7 75.3 72.2 76.6 71.8 78 71.8 79.4 71.9 80.7 72.2 82 72.7 83.9 73.5 85.9 73.9 88 74L88 68C86.6 67.9 85.3 67.6 84 67.1Z" stroke="none" stroke-width="1" stroke-linecap="butt" fill="#262626" fill-opacity="1"/></svg>