<svg viewBox="0 0 96 96" xmlns="http://www.w3.org/2000/svg" xmlns:xlink="http://www.w3.org/1999/xlink" id="Icons_Artist" overflow="hidden"><path d="M18.77 62.77 18.13 60.6C16.7869 62.0811 16.0296 64.0009 16 66L16 82 27.54 82Z" stroke="#595959" stroke-width="1.00007" stroke-linecap="butt" stroke-opacity="1" fill="#262626" fill-opacity="1"/><path d="M35.86 83.58 27 59.5 23.83 53.64C23.2159 53.1503 22.367 53.0792 21.68 53.46L21.13 53.68C20.28 54.04 19.64 54.68 19.74 55.33L21.64 61.72 32.34 85.13C32.7776 85.9544 33.8006 86.268 34.6251 85.8305 34.6436 85.8207 34.6619 85.8105 34.68 85.8 35.6034 85.4942 36.1231 84.5164 35.86 83.58Z" stroke="#595959" stroke-width="1.00007" stroke-linecap="butt" stroke-opacity="1" fill="#262626" fill-opacity="1"/><path d="M59.4 65.67C59.1268 64.6275 59.2041 63.5242 59.62 62.53 61.39 58.26 68.15 58.26 70.37 58.26 72.1863 58.26 73.9982 58.4375 75.78 58.79 71.3646 55.674 66.4266 53.3743 61.2 52 60.15 51.68 59.08 51.4 57.97 51.15 51.584 53.8651 44.3722 53.8867 37.97 51.21 36.91 51.45 35.85 51.71 34.79 52 32.3656 52.7006 29.9986 53.5865 27.71 54.65L29.71 58.29 38.46 82 53.22 82C51.0984 79.6895 49.9053 76.6766 49.87 73.54 49.87 69.4 51.87 64.94 56.22 64.94 57.1474 64.9525 58.0625 65.1533 58.91 65.53L59.36 65.73Z" stroke="#595959" stroke-width="1.00007" stroke-linecap="butt" stroke-opacity="1" fill="#262626" fill-opacity="1"/><path d="M23.19 44.82C22.36 42.91 20.57 42.62 19.06 41.74 17.336 40.8488 16.3093 39.0156 16.45 37.08 12.36 39.52 12.35 45.02 13.87 48.68 14.9359 51.2536 17.8864 52.4759 20.46 51.41 23.0336 50.3441 24.2559 47.3936 23.19 44.82Z" stroke="#595959" stroke-width="1.00007" stroke-linecap="butt" stroke-opacity="1" fill="#262626" fill-opacity="1"/><path d="M55.24 14.09C54.9 13.9 54.56 13.73 54.24 13.56 54.8642 13.1478 55.5357 12.812 56.24 12.56 56.7624 12.3808 57.0406 11.8121 56.8615 11.2896 56.69 10.7899 56.1594 10.5097 55.65 10.65 54.3633 11.0804 53.174 11.76 52.15 12.65 45.94 10.53 40.65 12.65 36.43 12.48 32.21 12.31 30.43 12.4 29.34 14.41 27.96 16.88 29.79 20.67 32.42 21.59L32.25 22.28C32.1195 22.8167 32.4488 23.3575 32.9854 23.4879 33.0265 23.4979 33.0681 23.5053 33.11 23.51L38.28 23.39C45.9628 23.1926 53.5586 25.0536 60.28 28.78L65.4 31.62C65.9158 31.7862 66.4702 31.5112 66.65 31L66.83 30.32C70.44 32.12 71.54 30.99 72.02 29.08 72.67 26.47 63.18 18.58 55.24 14.09Z" stroke="#595959" stroke-width="1.00007" stroke-linecap="butt" stroke-opacity="1" fill="#262626" fill-opacity="1"/><path d="M39.28 26.41 38.28 26.41 33.12 26.53 33 26.53C29.9346 34.8178 34.1681 44.0214 42.4559 47.0869 50.7437 50.1523 59.9474 45.9188 63.0128 37.631 63.4182 36.535 63.7023 35.3979 63.86 34.24L58.78 31.42C52.809 28.1259 46.0993 26.402 39.28 26.41Z" stroke="#595959" stroke-width="1.00007" stroke-linecap="butt" stroke-opacity="1" fill="#262626" fill-opacity="1"/><path d="M83.49 74.82C82.27 74.82 81.31 74.12 81.31 73.29 81.31 72.46 82.31 71.76 83.49 71.76 84.67 71.76 85.68 72.46 85.68 73.29 85.68 74.12 84.72 74.82 83.49 74.82ZM81.31 79.63C80.08 79.63 79.12 78.93 79.12 78.1 79.12 77.27 80.12 76.57 81.31 76.57 82.5 76.57 83.49 77.27 83.49 78.1 83.49 78.93 82.53 79.63 81.31 79.63ZM76.49 67.38C75.27 67.38 74.31 66.68 74.31 65.85 74.31 65.02 75.31 64.32 76.49 64.32 77.67 64.32 78.68 65.02 78.68 65.85 78.68 66.68 77.72 67.38 76.49 67.38ZM76.49 82.26C75.27 82.26 74.31 81.56 74.31 80.73 74.31 79.9 75.31 79.2 76.49 79.2 77.67 79.2 78.68 79.9 78.68 80.73 78.68 81.56 77.72 82.26 76.49 82.26ZM70.37 83.57C69.14 83.57 68.18 82.87 68.18 82.04 68.18 81.21 69.18 80.51 70.37 80.51 71.56 80.51 72.56 81.21 72.56 82.04 72.56 82.87 71.59 83.57 70.37 83.57ZM68 65.9C68.7 65.2 69.62 65.06 70.1 65.55 70.58 66.04 70.4 66.95 69.75 67.65 69.1 68.35 68.13 68.48 67.65 68 67.17 67.52 67.31 66.55 68 65.9ZM64.24 82.7C63.02 82.7 62.06 82 62.06 81.16 62.06 80.32 63.06 79.63 64.24 79.63 65.42 79.63 66.43 80.33 66.43 81.16 66.43 81.99 65.47 82.7 64.24 82.7ZM81.31 67.38C82.53 67.38 83.49 68.08 83.49 68.91 83.49 69.74 82.49 70.45 81.31 70.45 80.13 70.45 79.12 69.75 79.12 68.91 79.12 68.07 80.08 67.38 81.31 67.38ZM70.37 61.26C60.44 61.26 62.01 65.15 62.93 66.07L65.12 68.26C66.52 69.7 64.81 71.32 63.19 70.62L57.73 68.26C53.88 66.6 52.87 71.26 52.87 73.51 52.87 80.29 60.7 85.76 70.37 85.76 80.04 85.76 87.87 80.29 87.87 73.51 87.87 66.73 80 61.26 70.37 61.26Z" stroke="#595959" stroke-width="1.00007" stroke-linecap="butt" stroke-opacity="1" fill="#262626" fill-opacity="1"/></svg>